<svg version="1.1" id="peach-logo" viewBox="0 0 2560 1450"
   xmlns:xlink="http://www.w3.org/1999/xlink"
   xmlns="http://www.w3.org/2000/svg"
   xmlns:svg="http://www.w3.org/2000/svg">
   <g id="layer-MC0">
      <path id="path1" d="m 0,0 c -6.561,-21.873 -27.613,-32.803 -63.145,-32.803 -43.739,0 -65.606,15.031 -65.606,45.104 0,30.067 21.867,45.104 65.606,45.104 35.532,0 56.584,-10.937 63.145,-32.803 H 91.434 V 0 Z m 0,-330.109 c -6.561,-21.873 -27.613,-32.803 -63.145,-32.803 -43.739,0 -65.606,15.03 -65.606,45.103 0,30.068 21.867,45.104 65.606,45.104 35.532,0 56.584,-10.936 63.145,-32.802 h 91.434 v -24.602 z M 91.434,-660.223 H 0 c -6.561,-21.873 -27.613,-32.802 -63.145,-32.802 -43.739,0 -65.606,15.03 -65.606,45.103 0,30.068 21.867,45.104 65.606,45.104 35.532,0 56.584,-10.936 63.145,-32.803 h 91.434 z m -474.4,-32.802 c -43.74,0 -65.606,15.03 -65.606,45.103 0,30.068 21.866,45.104 65.606,45.104 43.732,0 65.605,-15.036 65.605,-45.104 0,-30.073 -21.873,-45.103 -65.605,-45.103 m -257.091,12.3 c -10.936,-13.671 -29.112,-20.501 -54.534,-20.501 -35.263,0 -56.175,12.301 -62.736,36.903 h 210.93 c 0.412,-5.676 1.043,-11.144 1.897,-16.402 z m -54.534,86.108 c 31.707,0 51.933,-9.572 60.685,-28.703 h -121.371 c 8.746,19.131 28.972,28.703 60.686,28.703 m -282.099,-20.502 h -70.526 v 41.004 h 70.526 c 18.586,0 27.882,-6.837 27.882,-20.502 0,-13.672 -9.296,-20.502 -27.882,-20.502 m 593.724,252.207 c -43.74,0 -65.606,15.03 -65.606,45.103 0,30.068 21.866,45.104 65.606,45.104 43.732,0 65.605,-15.036 65.605,-45.104 0,-30.073 -21.873,-45.103 -65.605,-45.103 m -257.091,12.301 c -10.936,-13.672 -29.112,-20.502 -54.534,-20.502 -35.263,0 -56.175,12.301 -62.736,36.903 h 210.93 c 0.412,-5.675 1.043,-11.144 1.897,-16.401 z m -54.534,86.107 c 31.707,0 51.933,-9.572 60.685,-28.703 h -121.371 c 8.746,19.131 28.972,28.703 60.686,28.703 m -282.099,-20.502 h -70.526 v 41.004 h 70.526 c 18.586,0 27.882,-6.836 27.882,-20.502 0,-13.672 -9.296,-20.502 -27.882,-20.502 m 593.724,252.203 c -43.74,0 -65.606,15.031 -65.606,45.104 0,30.067 21.866,45.104 65.606,45.104 43.732,0 65.605,-15.037 65.605,-45.104 0,-30.073 -21.873,-45.104 -65.605,-45.104 m -257.091,12.301 c -10.936,-13.672 -29.112,-20.501 -54.534,-20.501 -35.263,0 -56.175,12.3 -62.736,36.902 h 210.93 c 0.412,-5.675 1.043,-11.143 1.897,-16.401 z m -54.534,86.107 c 31.707,0 51.933,-9.571 60.685,-28.702 h -121.371 c 8.746,19.131 28.972,28.702 60.686,28.702 M -976.69,45.104 h -70.526 v 41.003 h 70.526 c 18.586,0 27.882,-6.836 27.882,-20.502 0,-13.671 -9.296,-20.501 -27.882,-20.501 M 411.261,-110.709 V 16.812 c 0,39.087 -9.43,69.154 -28.292,90.207 -19.413,21.591 -47.564,32.393 -84.468,32.393 -60.685,0 -96.909,-28.293 -108.659,-84.877 V 217.318 H 91.434 V 62.225 c -7.41,18.926 -19.573,34.541 -36.489,46.844 -28.158,20.226 -67.522,30.343 -118.09,30.343 -53.856,0 -94.859,-11.212 -123.011,-33.623 -15.113,-12.092 -26.039,-27.029 -32.797,-44.8 v 74.323 h -98.408 V 50.844 c -12.032,59.045 -49.614,88.568 -112.76,88.568 -38.274,0 -67.386,-11.212 -87.337,-33.623 -10.195,-11.33 -17.743,-25.16 -22.657,-41.476 -6.825,16.316 -17.308,30.146 -31.466,41.476 -28.158,22.411 -69.162,33.623 -123.01,33.623 -53.58,0 -94.584,-11.212 -123.011,-33.623 -10.283,-8.227 -18.63,-17.769 -25.044,-28.625 -2.316,29.67 -13.782,52.884 -34.405,69.628 -23.782,19.682 -58.225,29.523 -103.329,29.523 h -173.445 v -287.024 h 106.609 v 65.605 h 66.836 c 45.104,0 79.547,9.841 103.329,29.522 7.372,5.986 13.571,12.801 18.605,20.439 1.594,-36.857 15.207,-65.538 40.844,-86.044 28.427,-22.417 69.431,-33.623 123.011,-33.623 82.662,0 134.063,25.317 154.217,75.948 4.906,-16.69 12.542,-30.8 22.916,-42.325 19.951,-22.417 49.063,-33.623 87.337,-33.623 63.146,0 100.728,29.523 112.76,88.568 v -84.467 h 98.408 v 74.317 c 6.758,-17.771 17.684,-32.707 32.797,-44.795 28.152,-22.417 69.155,-33.623 123.011,-33.623 50.568,0 89.932,10.11 118.09,30.343 16.916,12.303 29.079,27.915 36.489,46.841 v -230.258 c -7.41,18.926 -19.573,34.541 -36.489,46.844 -28.158,20.226 -67.522,30.342 -118.09,30.342 -53.856,0 -94.859,-11.212 -123.011,-33.622 -15.113,-12.093 -26.039,-27.03 -32.797,-44.801 v 74.323 h -98.408 v -84.467 c -12.032,59.045 -49.614,88.567 -112.76,88.567 -38.274,0 -67.386,-11.212 -87.337,-33.622 -10.195,-11.331 -17.743,-25.16 -22.657,-41.476 -6.825,16.316 -17.308,30.145 -31.466,41.476 -28.158,22.41 -69.162,33.622 -123.01,33.622 -53.58,0 -94.584,-11.212 -123.011,-33.622 -10.283,-8.227 -18.63,-17.77 -25.044,-28.626 -2.316,29.671 -13.782,52.884 -34.405,69.629 -23.782,19.682 -58.225,29.523 -103.329,29.523 h -173.445 v -287.025 h 106.609 v 65.606 h 66.836 c 45.104,0 79.547,9.84 103.329,29.522 7.372,5.986 13.571,12.801 18.605,20.439 1.594,-36.857 15.207,-65.539 40.844,-86.044 28.427,-22.418 69.431,-33.623 123.011,-33.623 82.662,0 134.063,25.316 154.217,75.948 4.906,-16.69 12.542,-30.8 22.916,-42.325 19.951,-22.418 49.063,-33.623 87.337,-33.623 63.146,0 100.728,29.523 112.76,88.567 v -84.467 h 98.408 v 74.318 c 6.758,-17.771 17.684,-32.707 32.797,-44.795 28.152,-22.418 69.155,-33.623 123.011,-33.623 50.568,0 89.932,10.11 118.09,30.342 16.916,12.304 29.079,27.916 36.489,46.842 v -230.263 c -7.41,18.926 -19.573,34.541 -36.489,46.845 -28.158,20.226 -67.522,30.342 -118.09,30.342 -53.856,0 -94.859,-11.212 -123.011,-33.623 -15.113,-12.092 -26.039,-27.029 -32.797,-44.8 v 74.323 h -98.408 v -84.467 c -12.032,59.045 -49.614,88.567 -112.76,88.567 -38.274,0 -67.386,-11.212 -87.337,-33.623 -10.195,-11.33 -17.743,-25.16 -22.657,-41.475 -6.825,16.315 -17.308,30.145 -31.466,41.475 -28.158,22.411 -69.162,33.623 -123.01,33.623 -53.58,0 -94.584,-11.212 -123.011,-33.623 -10.283,-8.227 -18.63,-17.769 -25.044,-28.625 -2.316,29.671 -13.782,52.884 -34.405,69.629 -23.782,19.681 -58.225,29.522 -103.329,29.522 h -173.445 v -287.024 h 106.609 v 65.605 h 66.836 c 45.104,0 79.547,9.841 103.329,29.523 7.372,5.986 13.571,12.801 18.605,20.438 1.594,-36.856 15.207,-65.538 40.844,-86.044 28.427,-22.417 69.431,-33.623 123.011,-33.623 82.662,0 134.063,25.317 154.217,75.949 4.906,-16.69 12.542,-30.801 22.916,-42.326 19.951,-22.417 49.063,-33.623 87.337,-33.623 63.146,0 100.728,29.523 112.76,88.568 v -84.467 h 98.408 v 74.318 c 6.758,-17.771 17.684,-32.707 32.797,-44.796 28.152,-22.417 69.155,-33.623 123.011,-33.623 50.568,0 89.932,10.111 118.09,30.343 16.916,12.303 29.079,27.916 36.489,46.841 v -73.083 h 98.408 v 127.521 c 0,28.151 20.502,42.233 61.506,42.233 41.003,0 61.505,-14.082 61.505,-42.233 v -127.521 h 98.408 v 127.521 c 0,39.087 -9.43,69.155 -28.292,90.207 -19.413,21.591 -47.564,32.393 -84.468,32.393 -60.685,0 -96.909,-28.293 -108.659,-84.877 v 292.39 c 0,28.152 20.502,42.234 61.506,42.234 41.003,0 61.505,-14.082 61.505,-42.234 v -127.521 h 98.408 v 127.521 c 0,39.088 -9.43,69.155 -28.292,90.208 -19.413,21.59 -47.564,32.392 -84.468,32.392 -60.685,0 -96.909,-28.292 -108.659,-84.877 V 16.812 c 0,28.151 20.502,42.233 61.506,42.233 41.003,0 61.505,-14.082 61.505,-42.233 v -127.521 z" style="fill:currentColor icc-color(sRGB-IEC61966-2, 0.1, 0, 0, 0);fill-opacity:1;fill-rule:nonzero;stroke:none" transform="matrix(1.4521092,0,0,-1.4521092,1817.782,319.41564)" clip-path="url(#clipPath2)" />
   </g>
</svg>
