<svg width="512" height="512" viewBox="0 0 512 512" fill="none"
  xmlns="http://www.w3.org/2000/svg">
  <style>
    #text {
      fill: #000;
    }
    #background {
      fill: #FBFBFB;
    }
    @media (prefers-color-scheme: dark) {
      #text {
        fill: #FBFBFB;
      }
      #background {
        fill: transparent;
      }
    }
  </style>
  <rect id="background" width="512" height="512" />
  <g clip-path="url(#clip0_745_245)">
    <path id="text" d="M362.012 176.561C360.141 182.782 354.137 185.891 344.003 185.891C331.529 185.891 325.293 181.616 325.293 173.063C325.293 164.511 331.529 160.235 344.003 160.235C354.137 160.235 360.141 163.345 362.012 169.564H388.088V176.561H362.012ZM362.012 270.449C360.141 276.67 354.137 279.778 344.003 279.778C331.529 279.778 325.293 275.504 325.293 266.95C325.293 258.399 331.529 254.122 344.003 254.122C354.137 254.122 360.141 257.233 362.012 263.452H388.088V270.449H362.012ZM388.088 364.337H362.012C360.141 370.558 354.137 373.667 344.003 373.667C331.529 373.667 325.293 369.392 325.293 360.839C325.293 352.287 331.529 348.011 344.003 348.011C354.137 348.011 360.141 351.121 362.012 357.34H388.088V364.337ZM252.794 373.667C240.319 373.667 234.083 369.392 234.083 360.839C234.083 352.287 240.319 348.011 252.794 348.011C265.265 348.011 271.503 352.287 271.503 360.839C271.503 369.392 265.265 373.667 252.794 373.667ZM179.474 370.169C176.355 374.057 171.171 375.999 163.921 375.999C153.864 375.999 147.901 372.501 146.029 365.504H206.185C206.302 367.118 206.482 368.673 206.726 370.169H179.474ZM163.921 345.678C172.964 345.678 178.732 348.401 181.228 353.842H146.614C149.108 348.401 154.877 345.678 163.921 345.678ZM83.4693 351.509H63.356V339.847H83.4693C88.7698 339.847 91.421 341.792 91.421 345.678C91.421 349.567 88.7698 351.509 83.4693 351.509ZM252.794 279.778C240.319 279.778 234.083 275.504 234.083 266.95C234.083 258.399 240.319 254.122 252.794 254.122C265.265 254.122 271.503 258.399 271.503 266.95C271.503 275.504 265.265 279.778 252.794 279.778ZM179.474 276.28C176.355 280.168 171.171 282.111 163.921 282.111C153.864 282.111 147.901 278.612 146.029 271.615H206.185C206.302 273.229 206.482 274.785 206.726 276.28H179.474ZM163.921 251.79C172.964 251.79 178.732 254.512 181.228 259.953H146.614C149.108 254.512 154.877 251.79 163.921 251.79ZM83.4693 257.621H63.356V245.959H83.4693C88.7698 245.959 91.421 247.903 91.421 251.79C91.421 255.678 88.7698 257.621 83.4693 257.621ZM252.794 185.891C240.319 185.891 234.083 181.616 234.083 173.063C234.083 164.511 240.319 160.235 252.794 160.235C265.265 160.235 271.503 164.511 271.503 173.063C271.503 181.616 265.265 185.891 252.794 185.891ZM179.474 182.392C176.355 186.281 171.171 188.223 163.921 188.223C153.864 188.223 147.901 184.725 146.029 177.728H206.185C206.302 179.342 206.482 180.897 206.726 182.392H179.474ZM163.921 157.903C172.964 157.903 178.732 160.625 181.228 166.066H146.614C149.108 160.625 154.877 157.903 163.921 157.903ZM83.4693 163.733H63.356V152.071H83.4693C88.7698 152.071 91.421 154.016 91.421 157.903C91.421 161.791 88.7698 163.733 83.4693 163.733ZM479.299 208.049V171.78C479.299 160.663 476.61 152.112 471.231 146.124C465.694 139.983 457.666 136.911 447.141 136.911C429.834 136.911 419.504 144.958 416.153 161.051V114.753H388.088V158.864C385.974 153.481 382.506 149.04 377.681 145.541C369.651 139.788 358.425 136.911 344.003 136.911C328.644 136.911 316.95 140.1 308.922 146.474C304.612 149.913 301.496 154.161 299.568 159.215V138.077H271.503V162.101C268.072 145.308 257.354 136.911 239.345 136.911C228.43 136.911 220.128 140.1 214.438 146.474C211.53 149.696 209.378 153.629 207.976 158.27C206.03 153.629 203.04 149.696 199.002 146.474C190.972 140.1 179.278 136.911 163.921 136.911C148.641 136.911 136.947 140.1 128.84 146.474C125.907 148.814 123.527 151.527 121.697 154.615C121.037 146.176 117.767 139.574 111.885 134.812C105.103 129.214 95.2802 126.415 82.4169 126.415H32.9521V208.049H63.356V189.39H82.4169C95.2802 189.39 105.103 186.591 111.885 180.993C113.988 179.291 115.756 177.352 117.191 175.18C117.646 185.663 121.528 193.82 128.84 199.652C136.947 206.028 148.641 209.215 163.921 209.215C187.496 209.215 202.155 202.014 207.902 187.614C209.301 192.361 211.479 196.374 214.438 199.652C220.128 206.028 228.43 209.215 239.345 209.215C257.354 209.215 268.072 200.818 271.503 184.025V208.049H299.568V186.912C301.496 191.966 304.612 196.214 308.922 199.652C316.95 206.028 328.644 209.215 344.003 209.215C358.425 209.215 369.651 206.339 377.681 200.585C382.506 197.086 385.974 192.646 388.088 187.263V252.751C385.974 247.368 382.506 242.927 377.681 239.428C369.651 233.676 358.425 230.798 344.003 230.798C328.644 230.798 316.95 233.987 308.922 240.361C304.612 243.8 301.496 248.049 299.568 253.103V231.965H271.503V255.988C268.072 239.195 257.354 230.798 239.345 230.798C228.43 230.798 220.128 233.987 214.438 240.361C211.53 243.584 209.378 247.517 207.976 252.157C206.03 247.517 203.04 243.584 199.002 240.361C190.972 233.987 179.278 230.798 163.921 230.798C148.641 230.798 136.947 233.987 128.84 240.361C125.907 242.701 123.527 245.415 121.697 248.503C121.037 240.064 117.767 233.462 111.885 228.699C105.103 223.101 95.2802 220.302 82.4169 220.302H32.9521V301.936H63.356V283.277H82.4169C95.2802 283.277 105.103 280.478 111.885 274.88C113.988 273.178 115.756 271.24 117.191 269.067C117.646 279.55 121.528 287.708 128.84 293.539C136.947 299.915 148.641 303.102 163.921 303.102C187.496 303.102 202.155 295.902 207.902 281.502C209.301 286.248 211.479 290.262 214.438 293.539C220.128 299.915 228.43 303.102 239.345 303.102C257.354 303.102 268.072 294.705 271.503 277.913V301.936H299.568V280.799C301.496 285.853 304.612 290.101 308.922 293.539C316.95 299.915 328.644 303.102 344.003 303.102C358.425 303.102 369.651 300.227 377.681 294.473C382.506 290.973 385.974 286.533 388.088 281.15V346.64C385.974 341.257 382.506 336.816 377.681 333.317C369.651 327.564 358.425 324.687 344.003 324.687C328.644 324.687 316.95 327.876 308.922 334.25C304.612 337.689 301.496 341.937 299.568 346.991V325.853H271.503V349.877C268.072 333.083 257.354 324.687 239.345 324.687C228.43 324.687 220.128 327.876 214.438 334.25C211.53 337.472 209.378 341.406 207.976 346.046C206.03 341.406 203.04 337.472 199.002 334.25C190.972 327.876 179.278 324.687 163.921 324.687C148.641 324.687 136.947 327.876 128.84 334.25C125.907 336.59 123.527 339.303 121.697 342.391C121.037 333.952 117.767 327.35 111.885 322.588C105.103 316.99 95.2802 314.191 82.4169 314.191H32.9521V395.825H63.356V377.166H82.4169C95.2802 377.166 105.103 374.367 111.885 368.769C113.988 367.066 115.756 365.128 117.191 362.956C117.646 373.438 121.528 381.596 128.84 387.428C136.947 393.804 148.641 396.991 163.921 396.991C187.496 396.991 202.155 389.79 207.902 375.39C209.301 380.137 211.479 384.15 214.438 387.428C220.128 393.804 228.43 396.991 239.345 396.991C257.354 396.991 268.072 388.594 271.503 371.801V395.825H299.568V374.688C301.496 379.742 304.612 383.99 308.922 387.428C316.95 393.804 328.644 396.991 344.003 396.991C358.425 396.991 369.651 394.115 377.681 388.361C382.506 384.862 385.974 380.421 388.088 375.039V395.825H416.153V359.556C416.153 351.549 422 347.544 433.694 347.544C445.387 347.544 451.234 351.549 451.234 359.556V395.825H479.299V359.556C479.299 348.439 476.61 339.887 471.231 333.9C465.694 327.759 457.666 324.687 447.141 324.687C429.834 324.687 419.504 332.734 416.153 348.827V265.667C416.153 257.661 422 253.656 433.694 253.656C445.387 253.656 451.234 257.661 451.234 265.667V301.936H479.299V265.667C479.299 254.55 476.61 245.999 471.231 240.011C465.694 233.871 457.666 230.798 447.141 230.798C429.834 230.798 419.504 238.845 416.153 254.939V171.78C416.153 163.773 422 159.768 433.694 159.768C445.387 159.768 451.234 163.773 451.234 171.78V208.049H479.299Z" />
  </g>
  <defs>
    <clipPath id="clip0_745_245">
      <rect width="447" height="284" fill="white" transform="translate(32.5 114)"/>
    </clipPath>
  </defs>
</svg>
