<svg width="124" height="14" viewBox="0 0 124 14" fill="none" xmlns="http://www.w3.org/2000/svg">
<path d="M10.606 0.963999L11.222 0.249999C11.88 0.656 12.314 0.992 12.986 1.65L12.286 2.406C11.642 1.72 11.334 1.454 10.606 0.963999ZM9.598 6.788H6.966C6.756 8.286 6.63 8.762 6.182 9.658C5.636 10.764 4.796 11.73 3.746 12.514C3.382 12.78 3.088 12.962 2.444 13.34C2.206 12.836 1.898 12.43 1.52 12.136C3.326 11.114 4.194 10.302 4.824 9.07C5.16 8.398 5.342 7.726 5.44 6.788L2.388 6.788C1.786 6.788 1.002 6.802 0.428 6.816L0.428 5.304C0.96 5.318 1.758 5.332 2.388 5.332L9.598 5.332C10.158 5.332 11.068 5.318 11.544 5.304V6.816C11.04 6.802 10.13 6.788 9.598 6.788ZM9.15 2.014V3.526C8.744 3.512 8.156 3.498 7.75 3.498L3.914 3.498C3.508 3.498 2.92 3.512 2.514 3.526L2.514 2.014C2.92 2.028 3.508 2.042 3.914 2.042L7.75 2.042C8.156 2.042 8.744 2.028 9.15 2.014ZM9.5 2.224L10.13 1.51C10.788 1.916 11.222 2.252 11.908 2.91L11.208 3.68C10.55 2.98 10.242 2.728 9.5 2.224ZM20.756 7.04L20.896 7.068C21.036 7.096 21.12 7.166 21.12 7.292C21.12 7.376 21.078 7.418 20.896 7.53C20.896 8.048 20.882 8.552 20.882 9.616V11.296C20.882 11.618 20.896 12.836 20.896 13.326H19.426C19.496 12.808 19.524 12.192 19.524 11.296V8.244C18.292 9.392 17.662 9.896 16.192 10.862C15.8 10.218 15.8 10.218 15.352 9.77C17.368 8.496 18.278 7.796 19.426 6.592C20.322 5.654 20.868 4.926 21.512 3.778L22.632 4.282C22.744 4.338 22.814 4.408 22.814 4.492C22.814 4.604 22.744 4.674 22.562 4.73C22.002 5.57 21.302 6.452 20.756 7.04ZM29.66 5.052L29.534 3.484C30.724 3.484 32.74 3.428 33.776 3.372L36.338 3.218L36.548 2.966L37.612 3.932C37.724 4.044 37.752 4.072 37.752 4.156C37.752 4.24 37.696 4.282 37.584 4.31L37.416 4.352C36.24 6.326 36.184 6.396 35.414 7.348C35.456 7.376 35.54 7.432 35.61 7.488C36.842 8.44 36.996 8.566 37.738 9.336C38.34 9.952 38.62 10.288 39.138 11.002L37.92 12.08C36.968 10.722 36.366 10.008 35.666 9.392C34.658 8.524 34.658 8.524 34.476 8.384C32.978 9.966 31.382 11.058 28.988 12.136C28.652 11.436 28.54 11.254 28.176 10.806C30.934 9.602 32.32 8.65 33.958 6.83C34.602 6.116 35.064 5.5 35.442 4.884C35.554 4.716 35.554 4.716 35.624 4.59L33.86 4.758C33.734 4.772 33.244 4.8 32.53 4.842C31.858 4.884 30.304 4.996 29.66 5.052ZM50.842 9.336V5.164H45.27C44.794 5.164 44.052 5.178 43.59 5.192V3.694C44.01 3.708 44.696 3.722 45.27 3.722H51.234C51.71 3.722 52.074 3.722 52.424 3.708C52.41 4.156 52.41 4.156 52.382 5.934V8.972C52.382 10.092 52.396 10.904 52.424 11.436H50.842V10.778H45.172C44.71 10.778 43.912 10.792 43.492 10.806V9.308C43.912 9.322 44.626 9.336 45.172 9.336H50.842ZM66.508 1.216L67.124 0.487999C67.782 0.893999 68.216 1.23 68.888 1.888L68.202 2.658C67.544 1.972 67.236 1.706 66.508 1.216ZM61.594 1.426L62.91 2.028C63.092 2.112 63.106 2.126 63.106 2.21C63.106 2.308 63.064 2.35 62.798 2.448C62.686 2.672 62.49 3.022 62.21 3.512H64.968L65.192 3.26L66.298 4.184C66.466 4.324 66.48 4.338 66.48 4.422C66.48 4.534 66.424 4.576 66.144 4.702C65.122 7.502 64.114 9.112 62.392 10.666C61.496 11.478 60.726 12.01 58.99 13.032C58.696 12.458 58.584 12.304 58.01 11.814C61.58 9.938 63.33 8.062 64.52 4.842H61.44C60.614 6.06 59.438 7.278 58.192 8.23C57.828 7.684 57.786 7.642 57.17 7.124C58.5 6.186 59.55 5.122 60.376 3.848C60.992 2.896 61.356 2.168 61.594 1.426ZM65.416 2.476L66.032 1.762C66.69 2.168 67.124 2.504 67.81 3.162L67.11 3.932C66.452 3.232 66.144 2.966 65.416 2.476ZM71.45 6.172V4.716C71.884 4.73 72.43 4.744 72.85 4.744H79.22L79.43 4.506L80.522 5.486C80.634 5.584 80.662 5.626 80.662 5.696C80.662 5.808 80.564 5.878 80.326 5.948C79.752 7.698 79.066 8.944 77.96 10.176C76.826 11.436 75.454 12.388 73.354 13.368C72.934 12.626 72.794 12.402 72.458 12.052C74.894 11.03 76.378 9.938 77.568 8.286C78.072 7.586 78.492 6.774 78.688 6.144H72.85C72.472 6.144 71.912 6.158 71.45 6.172ZM79.374 1.804V3.26C78.982 3.246 78.38 3.232 77.974 3.232H74.082C73.676 3.232 73.088 3.246 72.682 3.26V1.804C73.088 1.818 73.676 1.832 74.082 1.832H77.974C78.38 1.832 78.982 1.818 79.374 1.804ZM93.374 2.966L93.612 2.7L94.816 3.68C94.914 3.764 94.956 3.82 94.956 3.904C94.956 4.002 94.858 4.086 94.606 4.156C94.046 6.116 93.318 7.6 92.296 8.818C90.952 10.428 89.44 11.478 86.696 12.738C86.402 12.08 86.15 11.744 85.688 11.408C88.474 10.246 89.902 9.294 91.162 7.754C91.96 6.802 92.702 5.388 92.954 4.366L89.44 4.618C87.55 4.73 86.164 4.814 85.478 4.898L85.324 3.33L85.73 3.344C85.982 3.344 86.29 3.33 86.878 3.302C87.228 3.288 87.634 3.26 88.068 3.246C88.712 3.218 89.16 3.204 89.412 3.19L93.374 2.966ZM104.756 7.04L104.896 7.068C105.036 7.096 105.12 7.166 105.12 7.292C105.12 7.376 105.078 7.418 104.896 7.53C104.896 8.048 104.882 8.552 104.882 9.616V11.296C104.882 11.618 104.896 12.836 104.896 13.326H103.426C103.496 12.808 103.524 12.192 103.524 11.296V8.244C102.292 9.392 101.662 9.896 100.192 10.862C99.8 10.218 99.8 10.218 99.352 9.77C101.368 8.496 102.278 7.796 103.426 6.592C104.322 5.654 104.868 4.926 105.512 3.778L106.632 4.282C106.744 4.338 106.814 4.408 106.814 4.492C106.814 4.604 106.744 4.674 106.562 4.73C106.002 5.57 105.302 6.452 104.756 7.04ZM123.432 6.41V7.908C122.774 7.894 121.668 7.866 120.926 7.866L115.06 7.866C114.374 7.866 113.156 7.894 112.554 7.908V6.41C113.128 6.424 114.346 6.452 115.06 6.452L120.926 6.452C121.696 6.452 122.802 6.438 123.432 6.41Z" fill="#331832"/>
</svg>
