<svg width="167" height="13" viewBox="0 0 167 13" fill="none" xmlns="http://www.w3.org/2000/svg">
<path d="M15.352 6.496C15.352 10.48 11.8 12 7.928 12H0.056L0.056 1.216L7.912 1.216C11.768 1.216 15.352 2.448 15.352 6.496ZM12.248 6.528C12.248 4.496 10.424 3.52 7.416 3.52L3.064 3.52L3.064 9.696L7.416 9.696C10.424 9.696 12.248 8.624 12.248 6.528ZM19.987 12H16.979L16.979 1.216L19.987 1.216L19.987 12ZM35.3501 8.512C35.3501 11.28 32.4381 12.288 28.1661 12.288C25.8621 12.288 23.6701 12.064 21.7181 11.392L22.3741 9.12C23.9421 9.68 25.9261 10.032 28.1821 10.032C31.1101 10.032 32.2941 9.616 32.2941 8.88C32.2941 8.128 31.2381 7.952 28.3421 7.728C23.9741 7.392 21.7661 6.704 21.7661 4.304C21.7661 2.08 24.4381 0.927999 28.9501 0.927999C31.1261 0.927999 33.4301 1.136 34.9981 1.776L34.3581 4.048C32.8701 3.456 30.9981 3.184 28.9341 3.184C26.3261 3.184 24.8701 3.44 24.8701 4.096C24.8701 4.752 25.7661 4.976 28.5021 5.184C32.9341 5.504 35.3501 6 35.3501 8.512ZM51.0404 11.056C49.1044 11.856 47.2164 12.288 44.5764 12.288C40.4804 12.288 36.5284 10.752 36.5284 6.608C36.5284 2.192 41.1524 0.927999 44.5764 0.927999C47.0084 0.927999 49.0404 1.264 51.0244 2.16L50.4164 4.448C48.8164 3.728 46.8484 3.296 44.8484 3.296C41.5524 3.296 39.6644 4.512 39.6644 6.624C39.6644 8.736 41.6484 9.92 44.8484 9.936C47.1524 9.936 48.8164 9.456 50.4324 8.8L51.0404 11.056ZM67.1928 6.608C67.1928 10.72 63.2728 12.288 59.3528 12.288C55.4808 12.288 51.5128 10.72 51.5128 6.608C51.5128 2.512 55.4648 0.927999 59.3528 0.927999C63.2248 0.927999 67.1928 2.512 67.1928 6.608ZM63.9928 6.608C63.9928 4.416 62.1688 3.152 59.3528 3.152C56.5048 3.152 54.6808 4.416 54.6808 6.608C54.6808 8.8 56.5048 10.064 59.3528 10.064C62.1688 10.064 63.9928 8.816 63.9928 6.608ZM82.835 11.216C81.251 11.84 79.107 12.288 76.467 12.288C72.403 12.288 68.419 10.784 68.419 6.608C68.419 2.256 72.883 0.927999 76.467 0.927999C78.931 0.927999 81.059 1.28 82.915 2.16L82.307 4.4C80.627 3.696 78.787 3.264 76.739 3.264C73.443 3.264 71.555 4.448 71.555 6.64C71.555 8.752 73.539 9.984 76.739 9.984C77.779 9.984 78.899 9.856 79.827 9.6V6.432L82.835 6.432V11.216ZM98.8838 12L94.8678 12L91.1718 7.984H87.9078V12H84.8997V1.216L94.8038 1.216C96.8678 1.216 98.6278 2.288 98.6278 4.528C98.6278 6.56 97.1238 7.728 95.2198 7.824H94.7398L98.8838 12ZM95.6838 4.624C95.6838 3.888 95.0438 3.488 94.0998 3.488L87.9078 3.488V5.84L94.2118 5.84C95.0598 5.84 95.6838 5.472 95.6838 4.624ZM116.772 12H113.028L111.86 10.08H104.276L103.076 12H99.4123L106.612 1.12L109.588 1.12L116.772 12ZM110.5 7.808L108.084 3.824L105.62 7.808H110.5ZM132.119 4.96C132.119 7.44 130.311 8.88 127.927 8.88L121.111 8.88V12L118.103 12V1.216L127.911 1.216C130.311 1.216 132.119 2.448 132.119 4.96ZM129.015 4.992C129.015 3.984 128.183 3.472 127.095 3.472L121.111 3.472V6.608L127.207 6.608C128.247 6.608 129.015 5.984 129.015 4.992ZM147.985 12H144.977V7.328L136.705 7.328V12H133.697V1.216L136.705 1.216V4.96L144.977 4.96V1.216L147.985 1.216V12ZM166.295 1.216L155.495 12H151.143L155.447 7.68L149.431 1.216L153.703 1.216L157.687 5.664L162.055 1.216H166.295Z" fill="#331832"/>
</svg>
