<svg width="145" height="13" viewBox="0 0 145 13" fill="none" xmlns="http://www.w3.org/2000/svg">
<path d="M2.056 12H0.392L0.392 1.216L2.056 1.216L2.056 12ZM18.1251 1.216L18.1251 12.256H17.9171L6.44513 4L6.44513 12H4.79713L4.79713 0.959999H5.00513L16.4611 9.232L16.4611 1.216H18.1251ZM32.5411 6.928L22.4451 6.928V12H20.7971L20.7971 1.216L32.5411 1.216V2.656L22.4451 2.656V5.456L32.5411 5.456V6.928ZM48.3849 6.608C48.3849 10.64 44.9129 12.288 41.1849 12.288C37.4729 12.288 33.9689 10.64 33.9689 6.608C33.9689 2.592 37.4569 0.927999 41.1849 0.927999C44.8969 0.927999 48.3849 2.592 48.3849 6.608ZM46.6249 6.608C46.6249 3.728 44.2729 2.288 41.1849 2.288C38.0809 2.288 35.7129 3.728 35.7129 6.608C35.7129 9.504 38.0809 10.928 41.1849 10.928C44.2729 10.928 46.6249 9.52 46.6249 6.608ZM62.8385 12H60.6145L56.2785 7.424H52.0545V12H50.4065V1.216L59.5425 1.216C61.3985 1.216 62.9665 2.224 62.9665 4.24C62.9665 6.304 61.4305 7.392 59.5585 7.392H58.3585L62.8385 12ZM61.3345 4.272C61.3345 3.184 60.4065 2.64 59.1905 2.64L52.0545 2.64V6.064H59.3345C60.2465 6.064 61.3345 5.648 61.3345 4.272ZM81.1702 12H79.5223V3.952L73.2663 8.512H73.0903L66.8983 3.984V12H65.2503V0.959999H65.4423L73.2023 6.608L80.9623 0.959999H81.1702V12ZM98.3236 12H96.2756L94.7716 9.552L86.4036 9.552L84.8836 12H82.8996L89.8916 1.04L91.3316 1.04L98.3236 12ZM93.8916 8.128L90.5956 2.8L87.2836 8.128L93.8916 8.128ZM109.792 2.656L103.536 2.656V12H101.888V2.656L95.6158 2.656V1.216L109.792 1.216V2.656ZM113.119 12H111.455V1.216L113.119 1.216V12ZM129.604 6.608C129.604 10.64 126.132 12.288 122.404 12.288C118.692 12.288 115.188 10.64 115.188 6.608C115.188 2.592 118.676 0.927999 122.404 0.927999C126.116 0.927999 129.604 2.592 129.604 6.608ZM127.844 6.608C127.844 3.728 125.492 2.288 122.404 2.288C119.3 2.288 116.932 3.728 116.932 6.608C116.932 9.504 119.3 10.928 122.404 10.928C125.492 10.928 127.844 9.52 127.844 6.608ZM144.953 1.216V12.256H144.745L133.273 4V12H131.625V0.959999H131.833L143.289 9.232V1.216H144.953Z" fill="#331832"/>
</svg>
