<svg width="11" height="109" viewBox="0 0 11 109" fill="none" xmlns="http://www.w3.org/2000/svg">
<path d="M10.5 106.826L10.5 108.282L1.064 108.282L1.064 106.826L10.5 106.826ZM1.064 92.7655L10.724 92.7655L10.724 92.9475L3.5 102.986L10.5 102.986L10.5 104.428L0.839999 104.428L0.839999 104.246L8.078 94.2215L1.064 94.2215L1.064 92.7655ZM6.062 80.1515L6.062 88.9855L10.5 88.9855L10.5 90.4275L1.064 90.4275L1.064 80.1515L2.324 80.1515L2.324 88.9855L4.774 88.9855L4.774 80.1515L6.062 80.1515ZM5.782 66.2882C9.31 66.2882 10.752 69.3262 10.752 72.5882C10.752 75.8362 9.31 78.9022 5.782 78.9022C2.268 78.9022 0.811998 75.8502 0.811998 72.5882C0.811998 69.3402 2.268 66.2882 5.782 66.2882ZM5.782 67.8282C3.262 67.8282 2.002 69.8862 2.002 72.5882C2.002 75.3042 3.262 77.3762 5.782 77.3762C8.316 77.3762 9.562 75.3042 9.562 72.5882C9.562 69.8862 8.33 67.8282 5.782 67.8282ZM10.5 53.6413L10.5 55.5873L6.496 59.3813L6.496 63.0773L10.5 63.0773L10.5 64.5193L1.064 64.5193L1.064 56.5253C1.064 54.9013 1.946 53.5293 3.71 53.5293C5.516 53.5293 6.468 54.8733 6.468 56.5113L6.468 57.5613L10.5 53.6413ZM3.738 54.9573C2.786 54.9573 2.31 55.7693 2.31 56.8333L2.31 63.0773L5.306 63.0773L5.306 56.7073C5.306 55.9093 4.942 54.9573 3.738 54.9573ZM10.5 37.601L10.5 39.043L3.458 39.043L7.448 44.517L7.448 44.671L3.486 50.089L10.5 50.089L10.5 51.531L0.839997 51.531L0.839997 51.363L5.782 44.573L0.839996 37.783L0.839996 37.601L10.5 37.601ZM10.5 22.5918L10.5 24.3838L8.358 25.6998L8.358 33.0218L10.5 34.3518L10.5 36.0878L0.909996 29.9698L0.909996 28.7098L10.5 22.5918ZM7.112 26.4698L2.45 29.3538L7.112 32.2518L7.112 26.4698ZM2.324 12.5572L2.324 18.0312L10.5 18.0312L10.5 19.4732L2.324 19.4732L2.324 24.9612L1.064 24.9612L1.064 12.5572L2.324 12.5572ZM10.5 9.64631L10.5 11.1023L1.064 11.1023L1.064 9.64631L10.5 9.64631ZM5.78199 -4.77817C9.30999 -4.77817 10.752 -1.74017 10.752 1.52183C10.752 4.76983 9.31 7.83583 5.782 7.83583C2.268 7.83583 0.811995 4.78383 0.811995 1.52183C0.811995 -1.72617 2.268 -4.77817 5.78199 -4.77817ZM5.78199 -3.23817C3.26199 -3.23817 2.00199 -1.18017 2.00199 1.52183C2.00199 4.23783 3.262 6.30983 5.782 6.30983C8.316 6.30983 9.562 4.23783 9.562 1.52183C9.562 -1.18017 8.33 -3.23817 5.78199 -3.23817ZM1.06399 -18.2091L10.724 -18.2091L10.724 -18.0271L3.49999 -7.98909L10.5 -7.98909L10.5 -6.54709L0.839994 -6.54709L0.839994 -6.72909L8.07799 -16.7531L1.06399 -16.7531L1.06399 -18.2091Z" fill="#331832"/>
</svg>
