<svg width="124" height="12" viewBox="0 0 124 12" fill="none" xmlns="http://www.w3.org/2000/svg">
<path d="M6.896 3.986L7.106 4.014C7.274 4.042 7.344 4.098 7.344 4.182C7.344 4.266 7.274 4.322 7.064 4.448C7.05 5.12 7.05 5.288 7.05 6.45L7.05 9.264C7.064 11.182 7.064 11.182 7.078 11.714H5.734C5.79 11.112 5.804 10.342 5.804 9.264V6.45C5.804 5.988 5.804 5.638 5.79 5.064C4.11 6.604 3.298 7.22 1.338 8.452C1.072 7.976 0.946 7.808 0.596 7.458C3.802 5.554 5.916 3.608 7.498 1.438C7.834 0.976 8.156 0.555999 8.38 -0.00400019L9.514 0.499999C9.612 0.541999 9.668 0.598 9.668 0.681999C9.668 0.78 9.598 0.836 9.36 0.92C8.548 2.124 7.666 3.23 6.896 3.986ZM15.324 2.544L16.08 1.606C17.354 2.306 17.956 2.768 18.796 3.72L17.858 4.672C16.976 3.622 16.276 3.062 15.324 2.544ZM16.458 10.482L15.688 9.39C17.578 8.62 18.908 7.92 20.49 6.702C22.282 5.33 23.304 4.336 24.788 2.306C25.026 2.768 25.166 2.95 25.558 3.356C24.256 4.98 23.528 5.75 22.506 6.646C20.938 8.018 19.552 8.984 16.906 10.37C16.864 10.566 16.794 10.65 16.71 10.65C16.626 10.65 16.528 10.58 16.458 10.482ZM37.374 1.606L37.598 1.34L38.662 2.18C38.746 2.25 38.802 2.306 38.802 2.39C38.802 2.516 38.718 2.572 38.452 2.656C37.29 6.73 35.19 8.998 30.668 11.07C30.43 10.51 30.276 10.314 29.87 9.992C33.678 8.452 36.1 6.366 37.15 2.684L33.342 2.936C31.242 3.076 30.43 3.118 29.604 3.216L29.45 1.984C30.248 1.984 31.13 1.956 33.328 1.83L37.374 1.606ZM45.536 4.966L48.294 4.91C48.294 3.636 48.28 3.118 48.21 2.6L49.358 2.698C49.498 2.712 49.582 2.768 49.582 2.866C49.582 2.95 49.526 3.02 49.386 3.104C49.372 3.412 49.358 3.664 49.358 4.224V4.91L50.506 4.882C51.276 4.868 51.57 4.854 52.354 4.812L52.368 5.876C51.92 5.862 51.584 5.862 51.416 5.862C51.164 5.862 50.884 5.876 50.52 5.876L49.358 5.89L49.372 8.046C49.386 9.362 49.4 10.006 49.4 10.356C49.4 11.21 49.036 11.476 47.86 11.476C47.636 11.476 47.538 11.476 47.034 11.462C47.006 10.902 46.978 10.776 46.782 10.258C47.356 10.328 47.734 10.356 47.986 10.356C48.266 10.356 48.308 10.314 48.308 9.978V6.66C47.342 8.046 45.886 9.32 43.758 10.594C43.604 10.244 43.422 9.95 43.156 9.684C45.172 8.592 46.572 7.416 47.706 5.904L45.55 5.946C44.724 5.96 44.262 5.974 43.688 6.016L43.674 4.952C43.968 4.966 44.276 4.966 44.57 4.966C44.892 4.966 45.214 4.966 45.536 4.966ZM64.128 0.192L65.332 0.695999C65.458 0.751999 65.514 0.807999 65.514 0.877999C65.514 0.99 65.43 1.074 65.22 1.13C64.716 2.824 64.128 4.252 63.386 5.442C64.324 6.142 64.842 6.618 65.668 7.528L64.744 8.494C63.96 7.57 63.47 7.066 62.742 6.492C61.594 8.242 59.984 9.754 57.464 11.406C57.268 11.028 56.946 10.65 56.652 10.44C59.06 8.928 60.586 7.528 61.72 5.792C60.936 5.26 60.222 4.882 59.116 4.364L59.704 3.412C60.558 3.762 61.398 4.182 62.35 4.77C62.882 3.93 63.33 2.824 63.68 1.76C63.862 1.214 64.016 0.681999 64.128 0.192ZM81.334 5.036V6.282C80.676 6.254 79.57 6.24 78.828 6.24H73.172C72.136 6.24 71.702 6.24 70.666 6.282V5.036C71.24 5.064 72.458 5.092 73.172 5.092H78.828C79.85 5.092 80.466 5.078 81.334 5.036ZM84.75 4.672L85.45 3.692C86.514 4.252 87.004 4.602 87.844 5.428L86.976 6.45C86.192 5.638 85.73 5.246 84.75 4.672ZM86.738 11.042L85.926 9.978C87.41 9.278 89.104 8.2 90.644 6.912C92.212 5.596 93.444 4.266 94.592 2.698C94.9 3.104 95.04 3.272 95.46 3.664C92.87 6.842 91.344 8.172 87.2 10.902C87.144 11.112 87.088 11.21 86.99 11.21C86.906 11.21 86.822 11.14 86.738 11.042ZM86.85 1.69L87.592 0.751999C88.544 1.326 89.02 1.69 89.944 2.642L89.048 3.594C88.166 2.614 87.704 2.25 86.85 1.69ZM100.906 7.486V6.464C101.256 6.478 101.886 6.492 102.32 6.492L106.016 6.492V4.924L101.998 4.924C101.424 4.924 100.976 4.938 100.584 4.952V3.93C100.948 3.944 101.396 3.944 101.998 3.944L106.1 3.944C106.464 3.944 106.884 3.944 107.122 3.93C107.094 4.364 107.094 4.938 107.094 5.778V8.522C107.094 9.446 107.094 10.02 107.122 10.566H106.016V10.146H101.914C101.438 10.146 100.906 10.16 100.5 10.174V9.138C100.976 9.152 101.438 9.166 101.914 9.166H106.016V7.458L102.32 7.458C101.844 7.458 101.214 7.472 100.906 7.486ZM113.324 2.544L114.08 1.606C115.354 2.306 115.956 2.768 116.796 3.72L115.858 4.672C114.976 3.622 114.276 3.062 113.324 2.544ZM114.458 10.482L113.688 9.39C115.578 8.62 116.908 7.92 118.49 6.702C120.282 5.33 121.304 4.336 122.788 2.306C123.026 2.768 123.166 2.95 123.558 3.356C122.256 4.98 121.528 5.75 120.506 6.646C118.938 8.018 117.552 8.984 114.906 10.37C114.864 10.566 114.794 10.65 114.71 10.65C114.626 10.65 114.528 10.58 114.458 10.482Z" fill="#331832"/>
</svg>
