<svg width="9" height="89" viewBox="0 0 9 89" fill="none" xmlns="http://www.w3.org/2000/svg">
<path d="M2.99 83.86L3.01 83.71C3.03 83.59 3.07 83.54 3.13 83.54C3.19 83.54 3.23 83.59 3.32 83.74C3.8 83.75 3.92 83.75 4.75 83.75L6.76 83.75C8.13 83.74 8.13 83.74 8.51 83.73L8.51 84.69C8.08 84.65 7.53 84.64 6.76 84.64L4.75 84.64C4.42 84.64 4.17 84.64 3.76 84.65C4.86 85.85 5.3 86.43 6.18 87.83C5.84 88.02 5.72 88.11 5.47 88.36C4.11 86.07 2.72 84.56 1.17 83.43C0.84 83.19 0.539999 82.96 0.14 82.8L0.499999 81.99C0.529999 81.92 0.569999 81.88 0.629999 81.88C0.699999 81.88 0.74 81.93 0.799999 82.1C1.66 82.68 2.45 83.31 2.99 83.86ZM1.96 77.84L1.29 77.3C1.79 76.39 2.12 75.96 2.8 75.36L3.48 76.03C2.73 76.66 2.33 77.16 1.96 77.84ZM7.63 77.03L6.85 77.58C6.3 76.23 5.8 75.28 4.93 74.15C3.95 72.87 3.24 72.14 1.79 71.08C2.12 70.91 2.25 70.81 2.54 70.53C3.7 71.46 4.25 71.98 4.89 72.71C5.87 73.83 6.56 74.82 7.55 76.71C7.69 76.74 7.75 76.79 7.75 76.85C7.75 76.91 7.7 76.98 7.63 77.03ZM1.29 62.09L1.1 61.93L1.7 61.17C1.75 61.11 1.79 61.07 1.85 61.07C1.94 61.07 1.98 61.13 2.04 61.32C4.95 62.15 6.57 63.65 8.05 66.88C7.65 67.05 7.51 67.16 7.28 67.45C6.18 64.73 4.69 63 2.06 62.25L2.24 64.97C2.34 66.47 2.37 67.05 2.44 67.64L1.56 67.75C1.56 67.18 1.54 66.55 1.45 64.98L1.29 62.09ZM3.69 56.26L3.65 54.29C2.74 54.29 2.37 54.3 2 54.35L2.07 53.53C2.08 53.43 2.12 53.37 2.19 53.37C2.25 53.37 2.3 53.41 2.36 53.51C2.58 53.52 2.76 53.53 3.16 53.53L3.65 53.53L3.63 52.71C3.62 52.16 3.61 51.95 3.58 51.39L4.34 51.38C4.33 51.7 4.33 51.94 4.33 52.06C4.33 52.24 4.34 52.44 4.34 52.7L4.35 53.53L5.89 53.52C6.83 53.51 7.29 53.5 7.54 53.5C8.15 53.5 8.34 53.76 8.34 54.6C8.34 54.76 8.34 54.83 8.33 55.19C7.93 55.21 7.84 55.23 7.47 55.37C7.52 54.96 7.54 54.69 7.54 54.51C7.54 54.31 7.51 54.28 7.27 54.28L4.9 54.28C5.89 54.97 6.8 56.01 7.71 57.53C7.46 57.64 7.25 57.77 7.06 57.96C6.28 56.52 5.44 55.52 4.36 54.71L4.39 56.25C4.4 56.84 4.41 57.17 4.44 57.58L3.68 57.59C3.69 57.38 3.69 57.16 3.69 56.95C3.69 56.72 3.69 56.49 3.69 56.26ZM0.279998 42.98L0.639997 42.12C0.679997 42.03 0.719997 41.99 0.769997 41.99C0.849998 41.99 0.909997 42.05 0.949998 42.2C2.16 42.56 3.18 42.98 4.03 43.51C4.53 42.84 4.87 42.47 5.52 41.88L6.21 42.54C5.55 43.1 5.19 43.45 4.78 43.97C6.03 44.79 7.11 45.94 8.29 47.74C8.02 47.88 7.75 48.11 7.6 48.32C6.52 46.6 5.52 45.51 4.28 44.7C3.9 45.26 3.63 45.77 3.26 46.56L2.58 46.14C2.83 45.53 3.13 44.93 3.55 44.25C2.95 43.87 2.16 43.55 1.4 43.3C1.01 43.17 0.629997 43.06 0.279998 42.98ZM3.74 30.69L4.63 30.69C4.61 31.16 4.6 31.95 4.6 32.48L4.6 36.52C4.6 37.26 4.6 37.57 4.63 38.31L3.74 38.31C3.76 37.9 3.78 37.03 3.78 36.52L3.78 32.48C3.78 31.75 3.77 31.31 3.74 30.69ZM3.48 28.25L2.78 27.75C3.18 26.99 3.43 26.64 4.02 26.04L4.75 26.66C4.17 27.22 3.89 27.55 3.48 28.25ZM8.03 26.83L7.27 27.41C6.77 26.35 6 25.14 5.08 24.04C4.14 22.92 3.19 22.04 2.07 21.22C2.36 21 2.48 20.9 2.76 20.6C5.03 22.45 5.98 23.54 7.93 26.5C8.08 26.54 8.15 26.58 8.15 26.65C8.15 26.71 8.1 26.77 8.03 26.83ZM1.35 26.75L0.679997 26.22C1.09 25.54 1.35 25.2 2.03 24.54L2.71 25.18C2.01 25.81 1.75 26.14 1.35 26.75ZM5.49 16.71L4.76 16.71C4.77 16.46 4.78 16.01 4.78 15.7L4.78 13.06L3.66 13.06L3.66 15.93C3.66 16.34 3.67 16.66 3.68 16.94L2.95 16.94C2.96 16.68 2.96 16.36 2.96 15.93L2.96 13C2.96 12.74 2.96 12.44 2.95 12.27C3.26 12.29 3.67 12.29 4.27 12.29L6.23 12.29C6.89 12.29 7.3 12.29 7.69 12.27L7.69 13.06L7.39 13.06L7.39 15.99C7.39 16.33 7.4 16.71 7.41 17L6.67 17C6.68 16.66 6.69 16.33 6.69 15.99L6.69 13.06L5.47 13.06L5.47 15.7C5.47 16.04 5.48 16.49 5.49 16.71ZM1.96 7.84L1.29 7.3C1.79 6.39 2.12 5.96 2.8 5.36L3.48 6.03C2.73 6.66 2.33 7.16 1.96 7.84ZM7.63 7.03L6.85 7.58C6.3 6.23 5.8 5.28 4.93 4.15C3.95 2.87 3.24 2.14 1.79 1.08C2.12 0.909999 2.25 0.809999 2.54 0.529999C3.7 1.46 4.25 1.98 4.89 2.71C5.87 3.83 6.56 4.82 7.55 6.71C7.69 6.74 7.75 6.79 7.75 6.85C7.75 6.91 7.7 6.98 7.63 7.03Z" fill="#331832"/>
</svg>
