<svg width="54" height="10" viewBox="0 0 54 10" fill="none" xmlns="http://www.w3.org/2000/svg">
<path d="M11.362 6.906V8.166C10.844 8.138 9.962 8.11 9.402 8.11H2.598C1.856 8.11 1.352 8.124 0.638 8.166V6.906C1.198 6.934 1.94 6.962 2.598 6.962H9.402C10.172 6.962 10.676 6.948 11.362 6.906ZM9.626 1.768V3.014C9.248 2.986 8.66 2.958 8.24 2.958H3.802C3.27 2.958 2.906 2.972 2.402 3.014V1.768C2.752 1.796 3.41 1.824 3.802 1.824H8.24C8.772 1.824 9.122 1.81 9.626 1.768ZM14.96 8.81V7.76C15.618 7.788 16.08 7.802 16.822 7.802H21.26L21.428 4.554H18.096C17.662 4.554 17.256 4.554 16.682 4.582V3.532C17.228 3.546 17.676 3.56 18.096 3.56H21.61C22.058 3.56 22.338 3.546 22.66 3.532C22.604 4.092 22.576 4.526 22.52 5.394L22.38 7.802H23.15C23.906 7.802 24.354 7.788 25.012 7.76V8.81C24.298 8.782 23.682 8.782 23.15 8.782H16.822C16.318 8.782 15.702 8.782 14.96 8.81ZM39.334 4.036V5.282C38.676 5.254 37.57 5.24 36.828 5.24H31.172C30.136 5.24 29.702 5.24 28.666 5.282V4.036C29.24 4.064 30.458 4.092 31.172 4.092H36.828C37.85 4.092 38.466 4.078 39.334 4.036ZM49.876 1.964L47.958 2.104C45.634 2.272 44.794 2.342 43.758 2.426L43.632 1.152C44.836 1.138 46.418 1.11 47.874 1.012L50.324 0.857999L50.534 0.606L51.458 1.404C51.556 1.488 51.598 1.544 51.598 1.614C51.598 1.726 51.556 1.754 51.262 1.824C50.52 3.252 50.03 3.966 49.246 4.82C50.758 5.912 51.976 7.13 53.04 8.614L52.018 9.468C50.814 7.732 50.002 6.864 48.49 5.66C46.936 7.298 45.424 8.334 42.96 9.482C42.75 8.992 42.624 8.796 42.288 8.418C45.004 7.228 46.306 6.29 47.916 4.61C48.672 3.826 49.218 3.112 49.876 1.964Z" fill="#331832"/>
</svg>
