<svg width="65" height="12" viewBox="0 0 65 12" fill="none" xmlns="http://www.w3.org/2000/svg">
<path d="M13.672 0.716V11.756H13.464L1.992 3.5V11.5H0.344V0.459999H0.552L12.008 8.732V0.716H13.672ZM28.088 11.5H16.344V0.716H28.088V2.156H17.992V4.828H28.088V6.236H17.992V10.06H28.088V11.5ZM51.7955 0.716L44.8515 11.676H43.2995L40.6915 7.548L38.0835 11.676H36.5315L29.5715 0.716H31.6195L37.3155 9.9L39.7155 6.028L36.3395 0.716H38.3875L40.7075 4.46L43.0435 0.716H45.0275L41.6675 6.028L44.0835 9.9L49.8115 0.716H51.7955ZM64.7823 8.188C64.7823 10.94 61.7263 11.788 58.1743 11.788C56.1743 11.788 54.0463 11.564 52.2543 10.812L52.6543 9.388C54.1743 10.06 56.1903 10.364 58.1743 10.364C60.8783 10.364 63.1023 9.884 63.1023 8.396C63.1023 7.228 61.6463 6.924 58.3823 6.652C54.5583 6.332 52.3183 5.772 52.3183 3.548C52.3183 1.388 54.9743 0.427999 58.9423 0.427999C60.9103 0.427999 62.9103 0.636 64.4143 1.292L64.0303 2.7C62.5423 2.076 60.7983 1.852 58.9263 1.852C56.6863 1.852 54.0303 2.124 54.0303 3.436C54.0303 4.476 55.2623 4.828 58.4623 5.084C62.2543 5.388 64.7823 5.852 64.7823 8.188Z" fill="#331832"/>
</svg>
