<svg width="91" height="12" viewBox="0 0 91 12" fill="none" xmlns="http://www.w3.org/2000/svg">
<path d="M13.208 4.13999C13.208 6.42799 11.576 7.80399 9.464 7.80399H1.992V11.5H0.344V0.715992H9.432C11.576 0.715992 13.208 1.86799 13.208 4.13999ZM11.496 4.17199C11.496 2.82799 10.408 2.13999 9.016 2.13999H1.992V6.37999H9.16C10.52 6.37999 11.496 5.45199 11.496 4.17199ZM27.651 11.5H25.427L21.091 6.92399H16.867V11.5H15.219V0.715992H24.355C26.211 0.715992 27.779 1.72399 27.779 3.73999C27.779 5.80399 26.243 6.89199 24.371 6.89199H23.171L27.651 11.5ZM26.147 3.77199C26.147 2.68399 25.219 2.13999 24.003 2.13999H16.867V5.56399H24.147C25.059 5.56399 26.147 5.14799 26.147 3.77199ZM43.5724 6.10799C43.5724 10.14 40.1004 11.788 36.3724 11.788C32.6604 11.788 29.1564 10.14 29.1564 6.10799C29.1564 2.09199 32.6444 0.427992 36.3724 0.427992C40.0844 0.427992 43.5724 2.09199 43.5724 6.10799ZM41.8124 6.10799C41.8124 3.22799 39.4604 1.78799 36.3724 1.78799C33.2684 1.78799 30.9004 3.22799 30.9004 6.10799C30.9004 9.00399 33.2684 10.428 36.3724 10.428C39.4604 10.428 41.8124 9.01999 41.8124 6.10799ZM57.338 6.42799H47.242V11.5H45.594V0.715992H57.338V2.15599H47.242V4.95599H57.338V6.42799ZM61.2279 11.5H59.5639V0.715992H61.2279V11.5ZM76.401 11.5H74.177L69.841 6.92399H65.617V11.5H63.969V0.715992H73.105C74.961 0.715992 76.529 1.72399 76.529 3.73999C76.529 5.80399 74.993 6.89199 73.121 6.89199H71.921L76.401 11.5ZM74.897 3.77199C74.897 2.68399 73.969 2.13999 72.753 2.13999H65.617V5.56399H72.897C73.809 5.56399 74.897 5.14799 74.897 3.77199ZM90.5568 11.5H78.8128V0.715992H90.5568V2.15599H80.4608V4.82799H90.5568V6.23599H80.4608V10.06H90.5568V11.5Z" fill="#331832"/>
</svg>
