<svg width="82" height="14" viewBox="0 0 82 14" fill="none" xmlns="http://www.w3.org/2000/svg">
<path d="M8.192 3.66202L8.416 3.39602L9.48 4.23602C9.564 4.30602 9.62 4.36202 9.62 4.44602C9.62 4.57202 9.536 4.62802 9.27 4.71202C8.108 8.78602 6.008 11.054 1.486 13.126C1.248 12.566 1.094 12.37 0.688 12.048C4.496 10.508 6.918 8.42202 7.968 4.74002L4.16 4.99202C2.06 5.13202 1.248 5.17402 0.422 5.27202L0.268 4.04002C1.066 4.04002 1.948 4.01202 4.146 3.88602L8.192 3.66202ZM10.46 0.694022C11.314 0.694022 11.986 1.36602 11.986 2.22002C11.986 3.07402 11.314 3.74602 10.46 3.74602C9.606 3.74602 8.934 3.07402 8.934 2.22002C8.934 1.36602 9.606 0.694022 10.46 0.694022ZM10.46 1.32402C9.984 1.32402 9.564 1.74402 9.564 2.22002C9.564 2.69602 9.984 3.11602 10.46 3.11602C10.936 3.11602 11.356 2.69602 11.356 2.22002C11.356 1.74402 10.936 1.32402 10.46 1.32402ZM16.284 11.096V11.768H15.066C15.094 11.236 15.108 10.41 15.108 9.30402V6.63002C15.108 5.48202 15.094 5.00602 15.066 4.40402C15.444 4.41802 15.78 4.41802 16.256 4.41802H21.842C22.374 4.41802 22.612 4.41802 23.032 4.40402C23.018 4.83802 22.99 5.79002 22.99 6.63002V9.30402C22.99 10.592 23.004 11.152 23.032 11.768H21.814V11.096H16.284ZM16.284 10.004H21.814V5.51002H16.284V10.004ZM36.374 3.60602L36.598 3.34002L37.662 4.18002C37.746 4.25002 37.802 4.30602 37.802 4.39002C37.802 4.51602 37.718 4.57202 37.452 4.65602C36.29 8.73002 34.19 10.998 29.668 13.07C29.43 12.51 29.276 12.314 28.87 11.992C32.678 10.452 35.1 8.36602 36.15 4.68402L32.342 4.93602C30.242 5.07602 29.43 5.11802 28.604 5.21602L28.45 3.98402C29.248 3.98402 30.13 3.95602 32.328 3.83002L36.374 3.60602ZM47.7 7.56802L47.77 7.58202C47.91 7.61002 47.98 7.66602 47.98 7.76402C47.98 7.84802 47.938 7.90402 47.77 8.01602C47.756 8.39402 47.756 8.73002 47.756 9.55602V11.768C47.756 12.566 47.77 13.112 47.784 13.77H46.58C46.622 13.252 46.636 12.692 46.636 11.768V9.62602C46.636 9.27602 46.636 8.94002 46.636 8.59002C45.516 9.66802 44.508 10.396 43.15 11.222C42.926 10.83 42.772 10.62 42.478 10.326C44.872 8.91202 46.664 7.35802 47.924 5.60802C48.218 5.21602 48.47 4.83802 48.708 4.37602L49.66 4.83802C49.758 4.88002 49.814 4.96402 49.814 5.03402C49.814 5.14602 49.73 5.20202 49.52 5.25802C48.82 6.29402 48.372 6.84002 47.7 7.56802ZM66.334 7.03602V8.28202C65.676 8.25402 64.57 8.24002 63.828 8.24002H58.172C57.136 8.24002 56.702 8.24002 55.666 8.28202V7.03602C56.24 7.06402 57.458 7.09202 58.172 7.09202H63.828C64.85 7.09202 65.466 7.07802 66.334 7.03602ZM75.91 11.516L74.972 10.83C75.112 10.34 75.14 9.86402 75.14 8.22602V5.88802C75.14 4.88002 75.112 4.18002 75.084 3.78802L76.372 3.87202C76.526 3.88602 76.61 3.94202 76.61 4.02602C76.61 4.09602 76.54 4.16602 76.344 4.29202C76.33 4.55802 76.33 4.78202 76.33 5.88802V10.004C78.402 9.03802 79.76 8.08602 81.286 6.47602C81.496 7.13402 81.552 7.24602 81.762 7.65202C79.914 9.36002 78.626 10.228 76.33 11.32C76.274 11.516 76.204 11.6 76.12 11.6C76.064 11.6 75.98 11.558 75.91 11.516ZM72.34 4.69802L73.67 4.86602C73.754 4.88002 73.838 4.95002 73.838 5.02002C73.838 5.10402 73.768 5.17402 73.572 5.27202C73.334 7.54002 73.124 8.42202 72.536 9.40202C71.892 10.494 71.094 11.222 69.442 12.244C69.246 11.782 69.05 11.488 68.7 11.18C70.296 10.256 71.024 9.59802 71.584 8.54802C72.06 7.68002 72.34 6.26602 72.34 4.69802Z" fill="#331832"/>
</svg>
