<svg width="84" height="14" viewBox="0 0 84 14" fill="none" xmlns="http://www.w3.org/2000/svg">
<path d="M8.376 4.96402L6.458 5.10402C4.134 5.27201 3.294 5.34201 2.258 5.42602L2.132 4.15201C3.336 4.13802 4.918 4.11001 6.374 4.01201L8.824 3.85801L9.034 3.60602L9.958 4.40401C10.056 4.48801 10.098 4.54401 10.098 4.61401C10.098 4.72601 10.056 4.75401 9.762 4.82401C9.02 6.25201 8.53 6.96601 7.746 7.82002C9.258 8.91201 10.476 10.13 11.54 11.614L10.518 12.468C9.314 10.732 8.502 9.86402 6.99 8.66002C5.436 10.298 3.924 11.334 1.46 12.482C1.25 11.992 1.124 11.796 0.788 11.418C3.504 10.228 4.806 9.29002 6.416 7.61001C7.172 6.82602 7.718 6.11202 8.376 4.96402ZM18.54 4.79601H24.28C24.966 4.79601 25.372 4.78202 25.932 4.75401V5.94402C25.484 5.93002 24.784 5.91601 24.28 5.91601H22.684C22.446 7.73602 21.844 9.33201 21.06 10.494C20.22 11.74 19.226 12.692 17.532 13.672C17.28 13.168 17.154 13.014 16.776 12.692C18.736 11.572 19.758 10.55 20.556 8.91201C21.046 7.89002 21.2 7.37202 21.424 5.91601H17.938C17.322 6.88202 16.734 7.55401 15.544 8.70202C15.236 8.25402 15.11 8.08602 14.732 7.86202C16.244 6.44801 17.224 5.10402 17.91 3.35402C18.106 2.86401 18.274 2.34601 18.428 1.78601L19.576 2.26201C19.73 2.31802 19.758 2.36001 19.758 2.43001C19.758 2.52801 19.716 2.57001 19.464 2.66801C19.17 3.46601 18.918 4.08201 18.54 4.79601ZM29.25 6.67201L29.95 5.69202C31.014 6.25201 31.504 6.60202 32.344 7.42801L31.476 8.45002C30.692 7.63802 30.23 7.24602 29.25 6.67201ZM31.238 13.042L30.426 11.978C31.91 11.278 33.604 10.2 35.144 8.91201C36.712 7.59602 37.944 6.26601 39.092 4.69801C39.4 5.10402 39.54 5.27201 39.96 5.66401C37.37 8.84201 35.844 10.172 31.7 12.902C31.644 13.112 31.588 13.21 31.49 13.21C31.406 13.21 31.322 13.14 31.238 13.042ZM31.35 3.69001L32.092 2.75201C33.044 3.32601 33.52 3.69001 34.444 4.64202L33.548 5.59401C32.666 4.61401 32.204 4.25002 31.35 3.69001ZM36.978 2.48601L37.51 1.88401C38.266 2.37401 38.728 2.71002 39.484 3.45201L38.868 4.09601C38.168 3.34001 37.762 2.99001 36.978 2.48601ZM38.056 1.32401L38.588 0.736015C39.344 1.22601 39.806 1.56201 40.562 2.29001L39.96 2.94801C39.274 2.17801 38.826 1.85601 38.056 1.32401ZM43.46 11.81V10.76C44.118 10.788 44.58 10.802 45.322 10.802H49.76L49.928 7.55401H46.596C46.162 7.55401 45.756 7.55401 45.182 7.58201V6.53202C45.728 6.54601 46.176 6.56002 46.596 6.56002H50.11C50.558 6.56002 50.838 6.54601 51.16 6.53202C51.104 7.09201 51.076 7.52601 51.02 8.39401L50.88 10.802H51.65C52.406 10.802 52.854 10.788 53.512 10.76V11.81C52.798 11.782 52.182 11.782 51.65 11.782H45.322C44.818 11.782 44.202 11.782 43.46 11.81ZM67.834 7.03601V8.28202C67.176 8.25402 66.07 8.24002 65.328 8.24002H59.672C58.636 8.24002 58.202 8.24002 57.166 8.28202V7.03601C57.74 7.06401 58.958 7.09201 59.672 7.09201H65.328C66.35 7.09201 66.966 7.07802 67.834 7.03601ZM77.41 11.516L76.472 10.83C76.612 10.34 76.64 9.86402 76.64 8.22601V5.88802C76.64 4.88001 76.612 4.18001 76.584 3.78801L77.872 3.87202C78.026 3.88601 78.11 3.94202 78.11 4.02601C78.11 4.09601 78.04 4.16601 77.844 4.29201C77.83 4.55801 77.83 4.78202 77.83 5.88802V10.004C79.902 9.03801 81.26 8.08602 82.786 6.47601C82.996 7.13401 83.052 7.24602 83.262 7.65201C81.414 9.36001 80.126 10.228 77.83 11.32C77.774 11.516 77.704 11.6 77.62 11.6C77.564 11.6 77.48 11.558 77.41 11.516ZM73.84 4.69801L75.17 4.86601C75.254 4.88001 75.338 4.95001 75.338 5.02001C75.338 5.10402 75.268 5.17402 75.072 5.27201C74.834 7.54002 74.624 8.42201 74.036 9.40202C73.392 10.494 72.594 11.222 70.942 12.244C70.746 11.782 70.55 11.488 70.2 11.18C71.796 10.256 72.524 9.59802 73.084 8.54801C73.56 7.68001 73.84 6.26601 73.84 4.69801Z" fill="#331832"/>
</svg>
