<svg width="123" height="12" viewBox="0 0 123 12" fill="none" xmlns="http://www.w3.org/2000/svg">
<path d="M13.772 8.01201C13.772 10.78 10.86 11.788 6.588 11.788C4.284 11.788 2.092 11.564 0.14 10.892L0.796 8.62001C2.364 9.18001 4.348 9.53201 6.604 9.53201C9.532 9.53201 10.716 9.11601 10.716 8.38001C10.716 7.62801 9.66 7.45201 6.764 7.22801C2.396 6.89201 0.188 6.20401 0.188 3.80401C0.188 1.58001 2.86 0.428007 7.372 0.428007C9.548 0.428007 11.852 0.636007 13.42 1.27601L12.78 3.54801C11.292 2.95601 9.42 2.68401 7.356 2.68401C4.748 2.68401 3.292 2.94001 3.292 3.59601C3.292 4.25201 4.188 4.47601 6.924 4.68401C11.356 5.00401 13.772 5.50001 13.772 8.01201ZM29.4623 10.556C27.5263 11.356 25.6383 11.788 22.9983 11.788C18.9023 11.788 14.9503 10.252 14.9503 6.10801C14.9503 1.69201 19.5743 0.428007 22.9983 0.428007C25.4303 0.428007 27.4623 0.764008 29.4463 1.66001L28.8383 3.94801C27.2383 3.22801 25.2703 2.79601 23.2703 2.79601C19.9743 2.79601 18.0863 4.01201 18.0863 6.12401C18.0863 8.23601 20.0703 9.42001 23.2703 9.43601C25.5743 9.43601 27.2383 8.95601 28.8543 8.30001L29.4623 10.556ZM45.3128 11.5H42.3048V6.82801H34.0328V11.5H31.0247V0.716007H34.0328V4.46001H42.3048V0.716007H45.3128V11.5ZM60.3106 11.5H47.4466V0.716007H60.3106V3.00401H50.4546V4.62001H60.3106V6.81201H50.4546V9.21201H60.3106V11.5ZM77.5864 5.99601C77.5864 9.98001 74.0344 11.5 70.1624 11.5H62.2904V0.716007H70.1464C74.0024 0.716007 77.5864 1.94801 77.5864 5.99601ZM74.4824 6.02801C74.4824 3.99601 72.6584 3.02001 69.6504 3.02001H65.2984V9.19601H69.6504C72.6584 9.19601 74.4824 8.12401 74.4824 6.02801ZM93.3894 0.716007V7.24401C93.3894 10.828 89.3094 11.788 86.2374 11.788C83.2294 11.788 79.0854 10.828 79.0854 7.24401V0.716007H82.0934V6.86001C82.0934 8.54001 83.7574 9.56401 86.2374 9.56401C88.7334 9.56401 90.3814 8.54001 90.3814 6.86001V0.716007H93.3894ZM108.199 11.5H95.4154V0.716007H98.4234V9.10001H108.199V11.5ZM122.483 11.5H109.618V0.716007H122.483V3.00401H112.627V4.62001H122.483V6.81201H112.627V9.21201H122.483V11.5Z" fill="#331832"/>
</svg>
