<svg width="74" height="13" viewBox="0 0 74 13" fill="none" xmlns="http://www.w3.org/2000/svg">
<mask id="path-1-outside-1_346_4232" maskUnits="userSpaceOnUse" x="-2" y="-1" width="77" height="15" fill="black">
<rect fill="white" x="-2" y="-1" width="77" height="15"/>
<path d="M18.608 1.216L11.408 12.08L7.392 12.08L0.192 1.216L4.8 1.216L9.408 8.8L14.032 1.216H18.608ZM23.4369 12H19.7409L19.7409 1.216H23.4369L23.4369 12ZM41.1106 6.496C41.1106 10.512 37.4626 12 33.4626 12L25.3186 12L25.3186 1.216L33.4626 1.216C37.4146 1.216 41.1106 2.416 41.1106 6.496ZM37.3026 6.528C37.3026 4.768 35.7826 3.84 32.8226 3.84H29.0146L29.0146 9.376H32.8226C35.7826 9.376 37.3026 8.384 37.3026 6.528ZM55.9145 12L42.4905 12V1.216L55.9145 1.216V3.776L46.1865 3.776V5.056L55.9145 5.056V7.504L46.1865 7.504V9.44L55.9145 9.44V12ZM73.5344 6.608C73.5344 10.752 69.3904 12.288 65.3584 12.288C61.4224 12.288 57.1984 10.752 57.1984 6.608C57.1984 2.48 61.3904 0.927999 65.3584 0.927999C69.3424 0.927999 73.5344 2.48 73.5344 6.608ZM69.6144 6.608C69.6144 4.688 68.0624 3.504 65.3584 3.504C62.6704 3.504 61.1184 4.688 61.1184 6.608C61.1184 8.528 62.6704 9.712 65.3584 9.712C68.0624 9.712 69.6144 8.544 69.6144 6.608Z"/>
</mask>
<path d="M18.608 1.216L19.4416 1.76843L20.4704 0.216L18.608 0.216V1.216ZM11.408 12.08V13.08H11.9449L12.2416 12.6324L11.408 12.08ZM7.392 12.08L6.55844 12.6324L6.85506 13.08H7.392V12.08ZM0.192 1.216L0.192 0.216H-1.67042L-0.641558 1.76843L0.192 1.216ZM4.8 1.216L5.65462 0.696739L5.36252 0.216H4.8V1.216ZM9.408 8.8L8.55338 9.31926L9.40652 10.7234L10.2618 9.32058L9.408 8.8ZM14.032 1.216L14.032 0.216L13.4705 0.216L13.1782 0.695424L14.032 1.216ZM17.7744 0.663568L10.5744 11.5276L12.2416 12.6324L19.4416 1.76843L17.7744 0.663568ZM11.408 11.08L7.392 11.08V13.08L11.408 13.08L11.408 11.08ZM8.22556 11.5276L1.02556 0.663568L-0.641558 1.76843L6.55844 12.6324L8.22556 11.5276ZM0.192 2.216L4.8 2.216V0.216L0.192 0.216L0.192 2.216ZM3.94538 1.73526L8.55338 9.31926L10.2626 8.28074L5.65462 0.696739L3.94538 1.73526ZM10.2618 9.32058L14.8858 1.73658L13.1782 0.695424L8.55418 8.27942L10.2618 9.32058ZM14.032 2.216H18.608V0.216H14.032L14.032 2.216ZM23.4369 12V13H24.4369V12H23.4369ZM19.7409 12H18.7409V13H19.7409V12ZM19.7409 1.216V0.216L18.7409 0.216V1.216L19.7409 1.216ZM23.4369 1.216H24.4369V0.216H23.4369V1.216ZM23.4369 11H19.7409V13H23.4369V11ZM20.7409 12L20.7409 1.216L18.7409 1.216L18.7409 12H20.7409ZM19.7409 2.216H23.4369V0.216H19.7409V2.216ZM22.4369 1.216L22.4369 12H24.4369L24.4369 1.216H22.4369ZM25.3186 12H24.3186V13H25.3186V12ZM25.3186 1.216V0.216L24.3186 0.216V1.216L25.3186 1.216ZM29.0146 3.84V2.84H28.0146V3.84H29.0146ZM29.0146 9.376H28.0146V10.376H29.0146V9.376ZM40.1106 6.496C40.1106 8.13792 39.395 9.20135 38.2603 9.90371C37.067 10.6424 35.3638 11 33.4626 11V13C35.5614 13 37.6823 12.6136 39.3129 11.6043C41.0022 10.5587 42.1106 8.87008 42.1106 6.496H40.1106ZM33.4626 11L25.3186 11V13L33.4626 13V11ZM26.3186 12L26.3186 1.216L24.3186 1.216L24.3186 12H26.3186ZM25.3186 2.216L33.4626 2.216V0.216L25.3186 0.216V2.216ZM33.4626 2.216C35.3679 2.216 37.0754 2.51043 38.2726 3.19432C39.3935 3.8346 40.1106 4.83134 40.1106 6.496H42.1106C42.1106 4.08065 40.9797 2.4374 39.2646 1.45768C37.6259 0.521574 35.5093 0.216 33.4626 0.216V2.216ZM38.3026 6.528C38.3026 5.29816 37.7397 4.30084 36.6888 3.66752C35.7114 3.07845 34.3772 2.84 32.8226 2.84V4.84C34.2281 4.84 35.1339 5.06555 35.6565 5.38048C36.1056 5.65116 36.3026 5.99784 36.3026 6.528H38.3026ZM32.8226 2.84L29.0146 2.84V4.84H32.8226V2.84ZM28.0146 3.84L28.0146 9.376H30.0146L30.0146 3.84H28.0146ZM29.0146 10.376H32.8226V8.376H29.0146V10.376ZM32.8226 10.376C34.3854 10.376 35.729 10.1192 36.7117 9.49027C37.7627 8.81763 38.3026 7.78026 38.3026 6.528H36.3026C36.3026 7.13174 36.0826 7.51837 35.6336 7.80573C35.1163 8.1368 34.2198 8.376 32.8226 8.376V10.376ZM55.9145 12V13H56.9145V12H55.9145ZM42.4905 12H41.4905V13H42.4905V12ZM42.4905 1.216V0.216H41.4905V1.216H42.4905ZM55.9145 1.216H56.9145V0.216H55.9145V1.216ZM55.9145 3.776V4.776H56.9145V3.776H55.9145ZM46.1865 3.776V2.776H45.1865V3.776H46.1865ZM46.1865 5.056H45.1865V6.056H46.1865V5.056ZM55.9145 5.056H56.9145V4.056H55.9145V5.056ZM55.9145 7.504V8.504H56.9145V7.504H55.9145ZM46.1865 7.504V6.504H45.1865V7.504H46.1865ZM46.1865 9.44H45.1865V10.44H46.1865V9.44ZM55.9145 9.44H56.9145V8.44H55.9145V9.44ZM55.9145 11L42.4905 11V13L55.9145 13V11ZM43.4905 12V1.216H41.4905V12H43.4905ZM42.4905 2.216L55.9145 2.216V0.216L42.4905 0.216V2.216ZM54.9145 1.216V3.776H56.9145V1.216H54.9145ZM55.9145 2.776L46.1865 2.776V4.776L55.9145 4.776V2.776ZM45.1865 3.776V5.056H47.1865V3.776H45.1865ZM46.1865 6.056L55.9145 6.056V4.056L46.1865 4.056V6.056ZM54.9145 5.056V7.504H56.9145V5.056H54.9145ZM55.9145 6.504L46.1865 6.504V8.504L55.9145 8.504V6.504ZM45.1865 7.504V9.44H47.1865V7.504H45.1865ZM46.1865 10.44L55.9145 10.44V8.44L46.1865 8.44V10.44ZM54.9145 9.44V12L56.9145 12V9.44H54.9145ZM72.5344 6.608C72.5344 8.27221 71.735 9.38819 70.453 10.1391C69.1202 10.9197 67.2719 11.288 65.3584 11.288V13.288C67.4769 13.288 69.7166 12.8883 71.4638 11.8649C73.2617 10.8118 74.5344 9.08779 74.5344 6.608H72.5344ZM65.3584 11.288C63.4961 11.288 61.6494 10.9209 60.3058 10.138C59.01 9.38289 58.1984 8.26447 58.1984 6.608H56.1984C56.1984 9.09554 57.4988 10.8171 59.2989 11.866C61.0513 12.8871 63.2846 13.288 65.3584 13.288V11.288ZM58.1984 6.608C58.1984 4.95738 59.0042 3.83909 60.2956 3.08297C61.6347 2.29895 63.4806 1.928 65.3584 1.928V-0.0720005C63.2681 -0.0720005 61.034 0.333052 59.2851 1.35703C57.4885 2.40891 56.1984 4.13062 56.1984 6.608H58.1984ZM65.3584 1.928C67.2447 1.928 69.0946 2.29914 70.4356 3.08325C71.7287 3.83939 72.5344 4.95754 72.5344 6.608H74.5344C74.5344 4.13046 73.244 2.40861 71.4452 1.35675C69.6941 0.332862 67.4561 -0.0720005 65.3584 -0.0720005V1.928ZM70.6144 6.608C70.6144 5.345 70.0871 4.26443 69.0943 3.5315C68.1385 2.82585 66.839 2.504 65.3584 2.504V4.504C66.5818 4.504 67.4102 4.77415 67.9064 5.1405C68.3657 5.47957 68.6144 5.951 68.6144 6.608H70.6144ZM65.3584 2.504C63.8846 2.504 62.5889 2.82633 61.6354 3.53229C60.6454 4.26517 60.1184 5.34526 60.1184 6.608L62.1184 6.608C62.1184 5.95074 62.3673 5.47883 62.8254 5.13971C63.3198 4.77367 64.1441 4.504 65.3584 4.504V2.504ZM60.1184 6.608C60.1184 7.87074 60.6454 8.95083 61.6354 9.68371C62.5889 10.3897 63.8846 10.712 65.3584 10.712V8.712C64.1441 8.712 63.3198 8.44233 62.8254 8.07629C62.3673 7.73717 62.1184 7.26526 62.1184 6.608L60.1184 6.608ZM65.3584 10.712C66.8362 10.712 68.1361 10.3953 69.0929 9.69156C70.0885 8.95928 70.6144 7.87707 70.6144 6.608H68.6144C68.6144 7.27493 68.3643 7.74472 67.9079 8.08044C67.4127 8.44468 66.5846 8.712 65.3584 8.712V10.712Z" fill="#331832" mask="url(#path-1-outside-1_346_4232)"/>
</svg>
