<svg width="38" height="14" viewBox="0 0 38 14" fill="none" xmlns="http://www.w3.org/2000/svg">
<path d="M1.774 7.46V9.756C1.774 10.764 1.984 10.862 3.93 10.862C5.4 10.862 6.8 10.75 8.06 10.512L8.284 11.716C7.052 11.912 5.764 11.982 3.86 11.982C1.158 11.982 0.584 11.618 0.584 9.868L0.584 4.646C0.584 3.596 0.57 2.91 0.542 2.546L1.83 2.644C1.998 2.658 2.068 2.7 2.068 2.798C2.068 2.868 2.012 2.938 1.802 3.064C1.788 3.484 1.774 3.862 1.774 4.646L1.774 6.382C3.902 5.794 5.596 5.052 6.688 4.03L7.64 4.842C7.71 4.912 7.752 4.982 7.752 5.038C7.752 5.136 7.654 5.192 7.486 5.192C7.444 5.192 7.36 5.192 7.262 5.178C5.568 6.242 4.014 6.844 1.774 7.46ZM6.982 2.98L7.514 2.378C8.27 2.868 8.732 3.204 9.488 3.946L8.872 4.59C8.172 3.834 7.766 3.484 6.982 2.98ZM8.06 1.818L8.592 1.23C9.348 1.72 9.81 2.056 10.566 2.784L9.964 3.442C9.278 2.672 8.83 2.35 8.06 1.818ZM21.486 6.592H18.826C18.756 8.034 18.434 9.112 17.72 10.19C16.922 11.394 15.956 12.318 14.472 13.116C14.276 12.71 14.038 12.402 13.716 12.15C15.242 11.296 16.04 10.568 16.67 9.574C17.216 8.692 17.454 7.95 17.58 6.592L14.486 6.592C13.716 6.592 13.352 6.592 12.526 6.62V5.43C13.058 5.444 13.856 5.472 14.486 5.472L21.486 5.472C22.256 5.472 22.746 5.458 23.446 5.43V6.62C22.928 6.606 22.018 6.592 21.486 6.592ZM21.024 2.252L21.024 3.414C20.618 3.4 20.03 3.386 19.624 3.386H16.012C15.466 3.386 15.214 3.4 14.612 3.414L14.612 2.252C15.018 2.266 15.606 2.28 16.012 2.28H19.624C20.17 2.28 20.422 2.28 21.024 2.252ZM21.402 2.238L21.976 1.664C22.69 2.196 23.138 2.56 23.852 3.344L23.194 3.946C22.536 3.148 22.144 2.784 21.402 2.238ZM22.536 1.132L23.11 0.586C23.824 1.118 24.272 1.468 24.986 2.238L24.342 2.854C23.712 2.07 23.292 1.706 22.536 1.132ZM29.06 4.758L32.602 4.702C32.574 2.952 32.56 2.588 32.49 1.874L33.862 1.972C33.988 1.986 34.072 2.042 34.072 2.126C34.072 2.21 34.002 2.28 33.82 2.378C33.792 2.896 33.778 3.246 33.778 3.89V4.702L35.248 4.674C36.032 4.66 36.466 4.646 37.46 4.59L37.488 5.766C37.152 5.766 36.816 5.752 36.48 5.752C36.074 5.752 35.668 5.752 35.262 5.766L33.778 5.794L33.792 8.552C33.806 10.148 33.834 11.002 33.834 11.422C33.834 12.444 33.414 12.738 31.93 12.738C31.692 12.738 31.454 12.724 31.006 12.71C30.978 12.122 30.936 11.898 30.74 11.366C31.426 11.45 31.72 11.478 32.07 11.478C32.518 11.478 32.602 11.394 32.602 10.918V6.62C31.482 8.356 29.522 10.05 26.876 11.618C26.652 11.044 26.554 10.89 26.246 10.596C28.752 9.21 30.572 7.656 31.916 5.808L29.074 5.864C28.346 5.878 27.898 5.892 26.848 5.934L26.834 4.744C27.142 4.758 27.408 4.758 27.66 4.758C28.024 4.758 28.542 4.772 29.06 4.758Z" fill="#331832"/>
</svg>
