<svg width="70" height="19" viewBox="0 0 70 19" fill="none" xmlns="http://www.w3.org/2000/svg">
<mask id="path-1-outside-1_788_247" maskUnits="userSpaceOnUse" x="0" y="4" width="68" height="13" fill="black">
<rect fill="white" y="4" width="68" height="13"/>
<path d="M18.282 5.564L11.982 15.07H8.468L2.168 5.564L6.2 5.564L10.232 12.2L14.278 5.564L18.282 5.564ZM22.5073 15H19.2733L19.2733 5.564L22.5073 5.564L22.5073 15ZM37.9718 10.184C37.9718 13.698 34.7798 15 31.2798 15L24.1538 15L24.1538 5.564L31.2798 5.564C34.7378 5.564 37.9718 6.614 37.9718 10.184ZM34.6398 10.212C34.6398 8.672 33.3098 7.86 30.7198 7.86H27.3878L27.3878 12.704L30.7198 12.704C33.3098 12.704 34.6398 11.836 34.6398 10.212ZM50.9252 15L39.1792 15V5.564L50.9252 5.564V7.804L42.4132 7.804V8.924H50.9252V11.066H42.4132V12.76H50.9252V15ZM66.3426 10.282C66.3426 13.908 62.7166 15.252 59.1886 15.252C55.7446 15.252 52.0486 13.908 52.0486 10.282C52.0486 6.67 55.7166 5.312 59.1886 5.312C62.6746 5.312 66.3426 6.67 66.3426 10.282ZM62.9126 10.282C62.9126 8.602 61.5546 7.566 59.1886 7.566C56.8366 7.566 55.4786 8.602 55.4786 10.282C55.4786 11.962 56.8366 12.998 59.1886 12.998C61.5546 12.998 62.9126 11.976 62.9126 10.282Z"/>
</mask>
<path d="M18.282 5.564L19.1156 6.11643L20.1444 4.564H18.282V5.564ZM11.982 15.07V16.07H12.5189L12.8156 15.6224L11.982 15.07ZM8.468 15.07L7.63444 15.6224L7.93106 16.07H8.468V15.07ZM2.168 5.564V4.564H0.305584L1.33444 6.11643L2.168 5.564ZM6.2 5.564L7.05462 5.04474L6.76252 4.564H6.2V5.564ZM10.232 12.2L9.37738 12.7193L10.2305 14.1234L11.0858 12.7206L10.232 12.2ZM14.278 5.564L14.278 4.564H13.7165L13.4242 5.04342L14.278 5.564ZM17.4484 5.01157L11.1484 14.5176L12.8156 15.6224L19.1156 6.11643L17.4484 5.01157ZM11.982 14.07H8.468V16.07H11.982V14.07ZM9.30156 14.5176L3.00156 5.01157L1.33444 6.11643L7.63444 15.6224L9.30156 14.5176ZM2.168 6.564L6.2 6.564V4.564L2.168 4.564V6.564ZM5.34538 6.08326L9.37738 12.7193L11.0866 11.6807L7.05462 5.04474L5.34538 6.08326ZM11.0858 12.7206L15.1318 6.08458L13.4242 5.04342L9.37818 11.6794L11.0858 12.7206ZM14.278 6.564L18.282 6.564V4.564L14.278 4.564L14.278 6.564ZM22.5073 15V16H23.5073V15H22.5073ZM19.2733 15L18.2733 15V16H19.2733V15ZM19.2733 5.564V4.564H18.2733V5.564H19.2733ZM22.5073 5.564H23.5073V4.564H22.5073V5.564ZM22.5073 14H19.2733V16H22.5073V14ZM20.2733 15L20.2733 5.564H18.2733L18.2733 15L20.2733 15ZM19.2733 6.564L22.5073 6.564V4.564L19.2733 4.564V6.564ZM21.5073 5.564L21.5073 15H23.5073L23.5073 5.564H21.5073ZM24.1538 15H23.1538V16H24.1538V15ZM24.1538 5.564V4.564H23.1538V5.564H24.1538ZM27.3878 7.86V6.86L26.3878 6.86V7.86L27.3878 7.86ZM27.3878 12.704H26.3878V13.704H27.3878V12.704ZM36.9718 10.184C36.9718 11.5749 36.3702 12.4663 35.412 13.0595C34.3951 13.6889 32.931 14 31.2798 14V16C33.1286 16 35.0104 15.6601 36.4646 14.76C37.9774 13.8237 38.9718 12.3071 38.9718 10.184H36.9718ZM31.2798 14L24.1538 14V16H31.2798V14ZM25.1538 15L25.1538 5.564H23.1538L23.1538 15H25.1538ZM24.1538 6.564L31.2798 6.564V4.564L24.1538 4.564V6.564ZM31.2798 6.564C32.9381 6.564 34.4066 6.82093 35.4265 7.40357C36.3702 7.9426 36.9718 8.77434 36.9718 10.184H38.9718C38.9718 8.02365 37.9564 6.5454 36.4186 5.66693C34.957 4.83207 33.0795 4.564 31.2798 4.564V6.564ZM35.6398 10.212C35.6398 9.09216 35.1243 8.17884 34.1672 7.60202C33.2835 7.06945 32.0893 6.86 30.7198 6.86V8.86C31.9403 8.86 32.7061 9.05655 33.1349 9.31498C33.4903 9.52916 33.6398 9.79184 33.6398 10.212H35.6398ZM30.7198 6.86H27.3878V8.86L30.7198 8.86V6.86ZM26.3878 7.86L26.3878 12.704H28.3878L28.3878 7.86L26.3878 7.86ZM27.3878 13.704L30.7198 13.704V11.704L27.3878 11.704V13.704ZM30.7198 13.704C32.0976 13.704 33.3012 13.4782 34.1901 12.9093C35.1474 12.2966 35.6398 11.3483 35.6398 10.212H33.6398C33.6398 10.6997 33.4672 10.9974 33.112 11.2247C32.6884 11.4958 31.932 11.704 30.7198 11.704V13.704ZM50.9252 15V16H51.9252V15L50.9252 15ZM39.1792 15H38.1792V16H39.1792V15ZM39.1792 5.564V4.564H38.1792V5.564H39.1792ZM50.9252 5.564H51.9252V4.564H50.9252V5.564ZM50.9252 7.804V8.804L51.9252 8.804V7.804H50.9252ZM42.4132 7.804V6.804H41.4132V7.804H42.4132ZM42.4132 8.924H41.4132V9.924H42.4132V8.924ZM50.9252 8.924L51.9252 8.924V7.924H50.9252V8.924ZM50.9252 11.066V12.066L51.9252 12.066V11.066L50.9252 11.066ZM42.4132 11.066V10.066H41.4132V11.066H42.4132ZM42.4132 12.76H41.4132V13.76H42.4132V12.76ZM50.9252 12.76L51.9252 12.76V11.76L50.9252 11.76V12.76ZM50.9252 14L39.1792 14V16H50.9252V14ZM40.1792 15V5.564H38.1792V15H40.1792ZM39.1792 6.564L50.9252 6.564V4.564L39.1792 4.564V6.564ZM49.9252 5.564V7.804H51.9252V5.564H49.9252ZM50.9252 6.804L42.4132 6.804V8.804H50.9252V6.804ZM41.4132 7.804V8.924H43.4132V7.804H41.4132ZM42.4132 9.924H50.9252V7.924L42.4132 7.924V9.924ZM49.9252 8.924V11.066L51.9252 11.066V8.924L49.9252 8.924ZM50.9252 10.066H42.4132V12.066H50.9252V10.066ZM41.4132 11.066V12.76H43.4132V11.066H41.4132ZM42.4132 13.76H50.9252V11.76H42.4132V13.76ZM49.9252 12.76V15L51.9252 15V12.76L49.9252 12.76ZM65.3426 10.282C65.3426 11.6872 64.6728 12.6257 63.5832 13.2639C62.4429 13.9317 60.8501 14.252 59.1886 14.252V16.252C61.0551 16.252 63.0393 15.9003 64.594 14.9896C66.1994 14.0493 67.3426 12.5028 67.3426 10.282H65.3426ZM59.1886 14.252C57.5723 14.252 55.9806 13.9329 54.8305 13.2627C53.7282 12.6204 53.0486 11.6795 53.0486 10.282L51.0486 10.282C51.0486 12.5105 52.217 14.0546 53.8236 14.9908C55.3825 15.8991 57.3608 16.252 59.1886 16.252V14.252ZM53.0486 10.282C53.0486 8.88938 53.7234 7.94859 54.8218 7.30547C55.9679 6.63445 57.5588 6.312 59.1886 6.312V4.312C57.3463 4.312 55.3672 4.66855 53.8113 5.57953C52.2078 6.51841 51.0486 8.06262 51.0486 10.282L53.0486 10.282ZM59.1886 6.312C60.8259 6.312 62.4203 6.63464 63.5681 7.30575C64.6679 7.94889 65.3426 8.88954 65.3426 10.282H67.3426C67.3426 8.06246 66.1832 6.51811 64.5776 5.57925C63.0198 4.66836 61.0373 4.312 59.1886 4.312V6.312ZM63.9126 10.282C63.9126 9.139 63.4338 8.15543 62.5318 7.4895C61.6667 6.85085 60.5002 6.566 59.1886 6.566V8.566C60.243 8.566 60.9384 8.79915 61.3439 9.0985C61.7124 9.37057 61.9126 9.745 61.9126 10.282L63.9126 10.282ZM59.1886 6.566C57.8828 6.566 56.7196 6.85133 55.8566 7.49029C54.9571 8.15617 54.4786 9.13926 54.4786 10.282H56.4786C56.4786 9.74474 56.679 9.36983 57.0466 9.09771C57.4505 8.79867 58.1423 8.566 59.1886 8.566V6.566ZM54.4786 10.282C54.4786 11.4247 54.9571 12.4078 55.8566 13.0737C56.7196 13.7127 57.8828 13.998 59.1886 13.998V11.998C58.1423 11.998 57.4505 11.7653 57.0466 11.4663C56.679 11.1942 56.4786 10.8193 56.4786 10.282H54.4786ZM59.1886 13.998C60.4974 13.998 61.6643 13.7178 62.5303 13.0808C63.4352 12.4153 63.9126 11.4301 63.9126 10.282L61.9126 10.282C61.9126 10.8279 61.711 11.2007 61.3453 11.4697C60.9409 11.7672 60.2458 11.998 59.1886 11.998V13.998Z" fill="#331832" mask="url(#path-1-outside-1_788_247)"/>
</svg>
